<!--
SPDX-FileCopyrightText: © 2025 Gregory Deseck

SPDX-License-Identifier: GPL-2.0-or-later

This file is part of the program "Back In Time" which is released under GNU
General Public License v2 (GPLv2). See LICENSES directory or go to
<https://spdx.org/licenses/GPL-2.0-or-later.html>
-->
<svg xmlns="http://www.w3.org/2000/svg" xmlns:xlink="http://www.w3.org/1999/xlink" width="128" height="128"><defs><linearGradient id="e"><stop offset="0" style="stop-color:#fc0;stop-opacity:1"/><stop offset=".5" style="stop-color:#fea;stop-opacity:1"/><stop offset="1" style="stop-color:#fc0;stop-opacity:1"/></linearGradient><linearGradient xlink:href="#a" id="f" x1="31.143" x2="31.143" y1="122.687" y2="31.924" gradientTransform="matrix(1.07692 0 0 1.0577 -13.538 -25.765)" gradientUnits="userSpaceOnUse"/><linearGradient id="a"><stop offset="0" style="stop-color:#6f7c91;stop-opacity:1"/><stop offset="1" style="stop-color:#8b96a7;stop-opacity:1"/></linearGradient><linearGradient xlink:href="#b" id="g" x1="69.214" x2="74.786" y1="108.066" y2="108.066" gradientTransform="matrix(1.4359 0 0 1.23462 -39.385 -56.87)" gradientUnits="userSpaceOnUse"/><linearGradient id="b"><stop offset="0" style="stop-color:#ccc;stop-opacity:1"/><stop offset=".5" style="stop-color:#f2f2f2;stop-opacity:1"/><stop offset="1" style="stop-color:#ccc;stop-opacity:1"/></linearGradient><linearGradient xlink:href="#c" id="h" x1="79.429" x2="79.429" y1="121.066" y2="117.352" gradientTransform="matrix(1.07692 0 0 1.61538 -16.539 -103.068)" gradientUnits="userSpaceOnUse"/><linearGradient id="c"><stop offset="0" style="stop-color:#fc0;stop-opacity:1"/><stop offset=".5" style="stop-color:#fea;stop-opacity:1"/><stop offset="1" style="stop-color:#fc0;stop-opacity:1"/></linearGradient><linearGradient xlink:href="#d" id="i" x1="74.786" x2="74.786" y1="121.531" y2="116.888" gradientTransform="matrix(1.48077 0 0 1.2923 -46.74 -64.555)" gradientUnits="userSpaceOnUse"/><linearGradient id="d"><stop offset="0" style="stop-color:#d40000;stop-opacity:1"/><stop offset=".5" style="stop-color:#f55;stop-opacity:1"/><stop offset="1" style="stop-color:#d40000;stop-opacity:1"/></linearGradient><linearGradient xlink:href="#b" id="l" x1="69.214" x2="74.786" y1="108.066" y2="108.066" gradientTransform="matrix(1.4359 0 0 1.23462 -106.085 -200.69)" gradientUnits="userSpaceOnUse"/><linearGradient xlink:href="#c" id="m" x1="79.429" x2="79.429" y1="121.066" y2="117.352" gradientTransform="matrix(1.07692 0 0 1.61538 -44.039 -232.887)" gradientUnits="userSpaceOnUse"/><linearGradient xlink:href="#d" id="n" x1="74.786" x2="74.786" y1="121.531" y2="116.888" gradientTransform="matrix(1.48077 0 0 1.2923 -74.24 -194.374)" gradientUnits="userSpaceOnUse"/><linearGradient xlink:href="#b" id="o" x1="69.214" x2="74.786" y1="108.066" y2="108.066" gradientTransform="matrix(1.4359 0 0 1.23462 -15.575 -110.18)" gradientUnits="userSpaceOnUse"/><linearGradient xlink:href="#e" id="p" x1="79.429" x2="79.429" y1="121.066" y2="117.352" gradientTransform="matrix(1.07692 0 0 1.61538 -44.039 -104.887)" gradientUnits="userSpaceOnUse"/><linearGradient xlink:href="#d" id="q" x1="74.786" x2="74.786" y1="121.531" y2="116.888" gradientTransform="matrix(1.48077 0 0 1.2923 -74.24 -66.374)" gradientUnits="userSpaceOnUse"/></defs><rect width="88" height="110" x="20" y="10" rx="8" ry="8.462" style="display:inline;fill:#535d6c;stroke-width:1.01788;paint-order:fill markers stroke"/><rect width="88" height="110" x="20" y="8" rx="8" ry="8.462" style="display:inline;fill:url(#f);stroke-width:1.01788;paint-order:fill markers stroke"/><circle cx="84" cy="89.5" r="5" style="display:inline;fill:#6c5d53;fill-opacity:1;stroke-width:1.48825;paint-order:fill markers stroke"/><circle cx="64" cy="89.5" r="12" style="display:inline;fill:#ac9d93;fill-opacity:1;stroke-width:4.67794;paint-order:fill markers stroke"/><path d="M64 86.5a5 5 0 0 0-5 5 5 5 0 0 0 5 5 5 5 0 0 0 4-2h16c1.662 0 3-1.338 3-3s-1.338-3-3-3H68a5 5 0 0 0-4-2" style="display:inline;fill:#000;fill-opacity:.1;stroke-width:1.49016;paint-order:fill markers stroke"/><rect width="8" height="32.1" x="60" y="60.5" rx="4" ry="4" style="display:inline;fill:url(#g);fill-opacity:1;stroke-width:2.51892;paint-order:fill markers stroke"/><rect width="18" height="6" x="69" y="86.5" rx="3" ry="3" style="display:inline;fill:url(#h);fill-opacity:1;stroke-width:1.49016;paint-order:fill markers stroke"/><rect width="11" height="6" x="64" y="86.5" rx="0" ry="0" style="display:inline;fill:url(#i);fill-opacity:1;stroke-width:1.5629;paint-order:fill markers stroke"/><circle cx="64" cy="89.5" r="5" style="display:inline;fill:#d40000;fill-opacity:1;stroke-width:1.98112;paint-order:fill markers stroke"/><circle cx="11.442" cy="-68.461" r="5" style="display:inline;fill:#6c5d53;fill-opacity:1;stroke-width:1.48825;paint-order:fill markers stroke" transform="rotate(135)"/><circle cx="-2.7" cy="-54.319" r="12" style="display:inline;fill:#ac9d93;fill-opacity:1;stroke-width:4.67794;paint-order:fill markers stroke" transform="rotate(135)"/><circle cx="-1.286" cy="-55.733" r="5" style="display:inline;fill:#000;fill-opacity:.1;stroke-width:1.98112;paint-order:fill markers stroke" transform="rotate(135)"/><rect width="8" height="32.1" x="-5.286" y="-84.733" rx="4" ry="4" style="display:inline;fill:#000;fill-opacity:.1;stroke-width:2.51892;paint-order:fill markers stroke" transform="rotate(135)"/><rect width="8" height="32.1" x="-6.7" y="-83.319" rx="4" ry="4" style="display:inline;fill:url(#l);fill-opacity:1;stroke-width:2.51892;paint-order:fill markers stroke" transform="rotate(135)"/><rect width="18" height="6" x="41.5" y="-43.319" rx="3" ry="3" style="display:inline;fill:url(#m);fill-opacity:1;stroke-width:1.49016;paint-order:fill markers stroke" transform="rotate(90)"/><rect width="11" height="6" x="36.5" y="-43.319" rx="0" ry="0" style="display:inline;fill:url(#n);fill-opacity:1;stroke-width:1.5629;paint-order:fill markers stroke" transform="rotate(90)"/><circle cx="-2.7" cy="-54.319" r="5" style="display:inline;fill:#d40000;fill-opacity:1;stroke-width:1.98112;paint-order:fill markers stroke" transform="rotate(135)"/><circle cx="101.951" cy="22.048" r="5" style="display:inline;fill:#6c5d53;fill-opacity:1;stroke-width:1.48824;paint-order:fill markers stroke" transform="rotate(45)scale(1 -1)"/><circle cx="87.809" cy="36.191" r="12" style="display:inline;fill:#ac9d93;fill-opacity:1;stroke-width:4.67794;paint-order:fill markers stroke" transform="rotate(45)scale(1 -1)"/><circle cx="89.224" cy="34.777" r="5" style="display:inline;fill:#000;fill-opacity:.1;stroke-width:1.98112;paint-order:fill markers stroke" transform="rotate(45)scale(1 -1)"/><rect width="8" height="32.1" x="85.223" y="5.777" rx="4" ry="4" style="display:inline;fill:#000;fill-opacity:.1;stroke-width:2.51892;paint-order:fill markers stroke" transform="rotate(45)scale(1 -1)"/><rect width="8" height="32.1" x="83.809" y="7.191" rx="4" ry="4" style="display:inline;fill:url(#o);fill-opacity:1;stroke-width:2.51892;paint-order:fill markers stroke" transform="rotate(45)scale(1 -1)"/><rect width="18" height="6" x="41.5" y="84.681" rx="3" ry="3" style="display:inline;fill:url(#p);fill-opacity:1;stroke-width:1.49016;paint-order:fill markers stroke" transform="matrix(0 1 1 0 0 0)"/><rect width="11" height="6" x="36.5" y="84.681" rx="0" ry="0" style="display:inline;fill:url(#q);fill-opacity:1;stroke-width:1.5629;paint-order:fill markers stroke" transform="matrix(0 1 1 0 0 0)"/><circle cx="87.809" cy="36.191" r="5" style="display:inline;fill:#d40000;fill-opacity:1;stroke-width:1.98112;paint-order:fill markers stroke" transform="rotate(45)scale(1 -1)"/></svg>
